<svg xmlns="http://www.w3.org/2000/svg" viewBox="0 0 30.72 30.72"><g id="Layer_2" data-name="Layer 2"><g id="Layer_1-2" data-name="Layer 1"><path id="Path_81" data-name="Path 81" d="M15.46,0a15.41,15.41,0,1,1-.1,0Z" style="fill:#2b61d1"/><path id="Path_73" data-name="Path 73" d="M20.93,24.53l-1.76,1-3.78-2.18,1.72-1h.07Z" style="fill:#fff"/><path id="Path_73-2" data-name="Path 73" d="M18.93,26.53l-1.76,1-3.78-2.18,1.72-1h.07Z" style="fill:#fff"/><path id="Path_75" data-name="Path 75" d="M26.77,16.15v5.47L22,24.35h0l-4.73-2.73V16.15l4.74-2.73Z" style="fill:#fff"/><path id="Path_76" data-name="Path 76" d="M22.27,8.47v3.15l-2.73,1.57-2.73-1.57V8.47L19.53,6.9Z" style="fill:#fff"/><path id="Path_76-2" data-name="Path 76" d="M8.78,23.09V19.94l2.74-1.56L14.25,20v3.15l-2.73,1.56Z" style="fill:#fff"/><path id="Path_73-3" data-name="Path 73" d="M10.39,6.22l1.78-1L15.91,7.5l-1.74,1H14.1Z" style="fill:#fff"/><path id="Path_73-4" data-name="Path 73" d="M12.45,4.16l1.77-1L18,5.44l-1.73,1h-.07Z" style="fill:#fff"/><path id="Path_75-2" data-name="Path 75" d="M4.4,14.48,4.5,9,9.28,6.37h0L14,9.19l-.1,5.46L9.07,17.3Z" style="fill:#fff"/></g></g></svg>